<?xml version="1.0" encoding="iso-8859-1"?>
<!-- Generator: Adobe Illustrator 19.0.0, SVG Export Plug-In . SVG Version: 6.00 Build 0)  -->
<svg version="1.1" id="Layer_1" xmlns="http://www.w3.org/2000/svg" xmlns:xlink="http://www.w3.org/1999/xlink" x="0px" y="0px"
	 viewBox="0 0 512 512" style="enable-background:new 0 0 512 512;" xml:space="preserve">
<g>
	<g>
		<path d="M448,387.654V256V124.346c24.858-8.784,42.667-32.474,42.667-60.346c0-35.355-28.645-64-64-64c-35.355,0-64,28.645-64,64
			c0,27.872,17.808,51.562,42.667,60.346v110.321h-128V124.346C302.192,115.562,320,91.872,320,64c0-35.355-28.645-64-64-64
			s-64,28.645-64,64c0,27.872,17.808,51.562,42.667,60.346v110.321h-128V124.346c24.858-8.784,42.667-32.474,42.667-60.346
			c0-35.355-28.645-64-64-64s-64,28.645-64,64c0,27.872,17.808,51.562,42.667,60.346V256c0,11.782,9.551,21.333,21.333,21.333
			h149.333v110.321C209.808,396.438,192,420.128,192,448c0,35.355,28.645,64,64,64s64-28.645,64-64
			c0-27.872-17.808-51.562-42.667-60.346V277.333h128v110.321c-24.858,8.784-42.667,32.474-42.667,60.346c0,35.355,28.645,64,64,64
			c35.355,0,64-28.645,64-64C490.667,420.128,472.858,396.438,448,387.654z M426.667,42.667C438.458,42.667,448,52.209,448,64
			s-9.542,21.333-21.333,21.333S405.333,75.791,405.333,64S414.875,42.667,426.667,42.667z M256,42.667
			c11.791,0,21.333,9.542,21.333,21.333S267.791,85.333,256,85.333c-11.791,0-21.333-9.542-21.333-21.333S244.209,42.667,256,42.667
			z M85.333,42.667c11.791,0,21.333,9.542,21.333,21.333s-9.542,21.333-21.333,21.333S64,75.791,64,64S73.542,42.667,85.333,42.667z
			 M256,469.333c-11.791,0-21.333-9.542-21.333-21.333s9.542-21.333,21.333-21.333c11.791,0,21.333,9.542,21.333,21.333
			S267.791,469.333,256,469.333z M426.667,469.333c-11.791,0-21.333-9.542-21.333-21.333s9.542-21.333,21.333-21.333
			S448,436.209,448,448S438.458,469.333,426.667,469.333z"/>
	</g>
</g>
<g>
</g>
<g>
</g>
<g>
</g>
<g>
</g>
<g>
</g>
<g>
</g>
<g>
</g>
<g>
</g>
<g>
</g>
<g>
</g>
<g>
</g>
<g>
</g>
<g>
</g>
<g>
</g>
<g>
</g>
</svg>
